<svg width="34" height="34" viewBox="0 0 34 34" fill="none" xmlns="http://www.w3.org/2000/svg">
<path d="M31.2459 17.6576C31.2459 18.3328 31.0727 18.9722 30.7679 19.5279C30.7261 19.5996 30.6843 19.6772 30.6365 19.749C29.9433 20.8245 28.7363 21.5416 27.3619 21.5416H26.3641C24.0277 21.5416 22.1275 23.4417 22.1275 25.7781V29.686C22.1275 30.3134 21.9781 30.911 21.7092 31.4308C21.0758 32.6976 19.7613 33.57 18.2435 33.57C18.1539 33.57 18.0642 33.564 17.9746 33.5581V24.9236C17.9746 24.4516 18.0164 23.9855 18.1061 23.5373C18.2315 22.8323 18.4646 22.163 18.7753 21.5416C19.5043 20.0955 20.6815 18.9184 22.1275 18.1894C22.5518 17.9743 23.0059 17.801 23.472 17.6695C24.1173 17.4843 24.8045 17.3887 25.5096 17.3887H31.234C31.24 17.4783 31.2459 17.5679 31.2459 17.6576Z" fill="#8146FF"/>
<path d="M34.0006 15.9013C34.0006 15.9909 33.9946 16.0805 33.9886 16.1642H25.5096C24.9419 16.1642 24.3862 16.0985 23.8544 15.979C23.2449 15.8475 22.6653 15.6384 22.1275 15.3635C20.6815 14.6345 19.5043 13.4574 18.7753 12.0113C18.602 11.6707 18.4586 11.3182 18.3451 10.9477H18.3391C18.1001 10.2187 17.9746 9.43592 17.9746 8.62924V3.19164C18.0642 3.18566 18.1539 3.17969 18.2435 3.17969C18.7514 3.17969 19.2414 3.28127 19.6895 3.46053C19.7732 3.49041 19.8509 3.52626 19.9286 3.56809C21.2312 4.18953 22.1275 5.52204 22.1275 7.06369V7.77476C22.1275 10.0813 23.9679 11.9575 26.2565 12.0113C26.2923 12.0173 26.3282 12.0173 26.3641 12.0173C26.3999 12.0173 26.4358 12.0173 26.4716 12.0113H30.1106C30.7918 12.0113 31.4312 12.1846 31.9869 12.4893C33.1879 13.1526 34.0006 14.4313 34.0006 15.9013Z" fill="#8146FF"/>
<path d="M16.0917 24.9236V30.5286C15.9901 30.5345 15.8886 30.5405 15.787 30.5405C15.297 30.5405 14.8309 30.4509 14.4007 30.2836C14.2692 30.2358 14.1437 30.182 14.0183 30.1162C12.9128 29.5546 12.1181 28.479 11.9388 27.2062V25.7781C11.9388 23.4417 10.0387 21.5416 7.70228 21.5416H3.88998C3.23268 21.5416 2.61125 21.3802 2.06748 21.0934C0.836555 20.4421 0 19.1454 0 17.6576C0 17.5679 0.00597566 17.4783 0.011951 17.3887H8.55676C9.1782 17.3887 9.78171 17.4664 10.3553 17.6098C10.9111 17.7412 11.4429 17.9384 11.9388 18.1894C13.3849 18.9184 14.562 20.0955 15.291 21.5416C15.4882 21.93 15.6495 22.3423 15.775 22.7665C15.9842 23.4477 16.0917 24.1767 16.0917 24.9236Z" fill="#8146FF"/>
<path d="M16.0905 0.011951V8.62846C16.0905 9.16027 16.0367 9.6861 15.9232 10.188C15.7917 10.8274 15.5766 11.4429 15.2898 12.0105C14.5608 13.4566 13.3836 14.6337 11.9376 15.3627C11.5611 15.5539 11.1667 15.7153 10.7544 15.8348C10.0553 16.0499 9.32036 16.1634 8.55551 16.1634H2.99242C2.98644 16.0798 2.98047 15.9901 2.98047 15.9005C2.98047 15.2611 3.13583 14.6636 3.40472 14.1318C3.46447 14.0123 3.5302 13.8928 3.60788 13.7792C4.29505 12.7156 5.49611 12.0105 6.86447 12.0105H7.59347C7.62932 12.0165 7.66517 12.0165 7.70102 12.0165C7.73688 12.0165 7.77273 12.0165 7.80858 12.0105C10.0972 11.9567 11.9376 10.0805 11.9376 7.77398V3.88998C11.9376 3.25061 12.0929 2.65307 12.3618 2.12126C13.0012 0.860455 14.3158 0 15.8276 0C15.9172 0 16.0068 0.00597566 16.0905 0.011951Z" fill="#8146FF"/>
</svg>
